arm26_elbow_motion
version=1
nRows=380
nColumns=2
inDegrees=no
endheader
time	r_elbow_flex
10.895497	0.60915062
10.912266	0.58586995
10.929274	0.56411520
10.946199	0.54208551
10.952163	0.52176314
10.960599	0.50508925
10.975521	0.49117572
10.983790	0.47853666
10.993856	0.46702668
11.023016	0.45799374
11.033246	0.45213280
11.043054	0.44854542
11.078720	0.44686705
11.086963	0.44684557
11.112033	0.44798039
11.127956	0.45087880
11.143622	0.45575497
11.154194	0.46196254
11.174960	0.46976581
11.192833	0.47948136
11.210860	0.49182333
11.226731	0.50670945
11.243784	0.52280363
11.328989	0.54047978
11.335148	0.56637767
11.354666	0.59467289
11.360906	0.62453479
11.375062	0.65606125
11.395852	0.69021990
11.410515	0.72749017
11.427295	0.76714772
11.438644	0.80325919
11.445859	0.84122616
11.457845	0.88130800
11.476946	0.92282772
11.526726	0.96475217
11.535226	1.00563712
11.548068	1.04660778
11.562281	1.08769040
11.578381	1.12864688
11.592825	1.16887411
11.618895	1.20755219
11.628420	1.24553448
11.642126	1.28505172
11.659898	1.32486900
11.663678	1.36363372
11.676555	1.40117604
11.693705	1.43833844
11.710191	1.47654563
11.729268	1.51491901
11.744532	1.55254801
11.764257	1.58897060
11.774630	1.62411726
11.786479	1.66026911
11.824892	1.69816239
11.841432	1.73439597
11.858458	1.76947558
11.877275	1.80386532
11.886792	1.83743099
11.898256	1.87029423
11.917263	1.90032506
11.925488	1.92597478
11.941523	1.94935243
11.960423	1.97027652
11.967839	1.98936236
11.976074	2.00745123
11.994026	2.02503335
12.003507	2.04233453
12.011651	2.05977401
12.043649	2.07791362
12.054465	2.09666510
12.074744	2.11537808
12.089168	2.13339356
12.106272	2.15076253
12.130813	2.16717263
12.144917	2.18233833
12.159885	2.19551058
12.167805	2.20635294
12.194637	2.21449199
12.204561	2.22029284
12.224765	2.22351287
12.240787	2.22413199
12.257214	2.22221738
12.278494	2.21810689
12.292207	2.21192795
12.308031	2.20373704
12.314129	2.19352674
12.340764	2.18153443
12.354802	2.16806743
12.391610	2.15301720
12.408774	2.13610485
12.420456	2.11713359
12.461246	2.09662922
12.475347	2.07476275
12.491581	2.05169424
12.503214	2.02704913
12.524365	2.00214234
12.540175	1.97667937
12.548863	1.95134877
12.557940	1.92579197
12.574611	1.89984438
12.583641	1.87427944
12.593048	1.84954688
12.601932	1.82521800
12.612055	1.80128902
12.674263	1.77559683
12.682909	1.75053688
12.707531	1.72748061
12.722784	1.70421059
12.740993	1.67802587
12.751780	1.64940942
12.770896	1.62035431
12.790819	1.59311048
12.798192	1.56528062
12.820794	1.53411257
12.829750	1.49954949
12.837380	1.46371568
12.845647	1.42934815
12.870053	1.39563974
12.886278	1.35837736
12.912488	1.31455994
12.920458	1.26662603
12.937280	1.22235572
12.974422	1.18425787
12.990777	1.14226587
12.998572	1.09122623
13.016178	1.03799066
13.024673	0.99201280
13.034867	0.95276456
13.044987	0.91032642
13.094062	0.86062089
13.101378	0.81334865
13.117385	0.77605491
13.127889	0.74523349
13.141058	0.71237736
13.151660	0.67837554
13.161304	0.65000787
13.176877	0.62952923
13.191469	0.61175954
13.201916	0.59317743
13.209867	0.57517800
13.228711	0.56035474
13.240818	0.54758632
13.291276	0.53362894
13.297438	0.51842076
13.310001	0.50472715
13.327647	0.49376764
13.334496	0.48470929
13.357863	0.47742082
13.376284	0.47232699
13.393240	0.47073872
13.424107	0.47286432
13.432266	0.47628034
13.447824	0.47968824
13.460731	0.48437486
13.476201	0.49133326
13.499794	0.50019893
13.524165	0.51003213
13.530565	0.52109623
13.587898	0.53478095
13.612265	0.55337802
13.626161	0.57683790
13.642951	0.60304321
13.652339	0.63139287
13.677030	0.66239291
13.693726	0.69568023
13.702215	0.73143415
13.706939	0.76917342
13.717735	0.80766190
13.730540	0.84765671
13.739079	0.89002556
13.760233	0.93537151
13.765882	0.98295444
13.775898	1.03207925
13.790708	1.08204061
13.807221	1.13301478
13.823965	1.18599343
13.835050	1.24073698
13.844552	1.29476675
13.860384	1.34827153
13.878702	1.40183275
13.889055	1.45507471
13.926970	1.50711183
13.935930	1.55746278
13.962204	1.60546666
13.969666	1.65124266
13.995023	1.69482293
14.000946	1.73565005
14.012744	1.77442283
14.022086	1.81201761
14.040548	1.84838092
14.076156	1.88325518
14.142337	1.91678410
14.147514	1.94912293
14.156020	1.98105832
14.171918	2.01175662
14.180165	2.04082340
14.193313	2.06764476
14.209236	2.09304215
14.211826	2.11773340
14.225945	2.14184197
14.242678	2.16555084
14.293127	2.18867926
14.302601	2.21107403
14.317642	2.23269763
14.337360	2.25233618
14.352348	2.26971590
14.374832	2.28440586
14.393443	2.29516220
14.409295	2.30193270
14.417540	2.30473966
14.444058	2.30367994
14.461639	2.29965905
14.471523	2.29263204
14.487843	2.28257612
14.504066	2.26999722
14.520604	2.25487105
14.535669	2.23743862
14.559587	2.21789534
14.573821	2.19670518
14.593105	2.17440869
14.602718	2.15081432
14.613324	2.12658497
14.630250	2.10243974
14.643589	2.07927290
14.658384	2.05530012
14.675106	2.03069420
14.683480	2.00694128
14.691622	1.98491509
14.709078	1.96488323
14.716194	1.94316829
14.809595	1.91758857
14.884531	1.89382363
14.901968	1.85933231
14.912457	1.82683130
14.927093	1.77973938
14.939926	1.73022356
14.951611	1.68140683
14.961396	1.63505293
14.983668	1.58607652
14.999334	1.54520162
15.008198	1.49954587
15.023402	1.46577298
15.040588	1.43039245
15.056779	1.39292813
15.075737	1.35256278
15.092201	1.31173479
15.106781	1.27237380
15.140263	1.23176180
15.150831	1.18890704
15.173456	1.14321639
15.188329	1.09581299
15.208100	1.04829297
15.224921	1.00015040
15.233150	0.95079932
15.241467	0.90082819
15.250100	0.85146968
15.258229	0.80684048
15.274892	0.76931641
15.284611	0.73837499
15.301107	0.71131729
15.310984	0.68652959
15.341426	0.66501928
15.356788	0.64731853
15.408798	0.63077643
15.423486	0.61276300
15.442579	0.59315607
15.451268	0.57455499
15.475401	0.55855297
15.488864	0.54490786
15.496126	0.53350502
15.520652	0.52484909
15.529317	0.51887363
15.539905	0.51511479
15.546162	0.51323014
15.554974	0.51374098
15.579021	0.51691283
15.589781	0.52178777
15.609419	0.52781993
15.631061	0.53523540
15.654253	0.54438910
15.660499	0.55494626
15.672999	0.56673823
15.688318	0.58005899
15.706820	0.59515886
15.723496	0.61181633
15.764257	0.63005789
15.768398	0.65077638
15.775594	0.67490820
15.792476	0.70175721
15.806606	0.72994046
15.823184	0.76073378
15.831072	0.79548728
15.856839	0.83417116
15.908208	0.87508684
15.914909	0.91730803
15.941070	0.96122328
15.948542	1.00764704
15.976047	1.05549019
15.992518	1.10320395
16.007066	1.14983315
16.061023	1.19593836
16.068098	1.24091211
16.093826	1.28513029
16.109642	1.32796523
16.116624	1.36795510
16.126537	1.40671926
16.133905	1.44493705
16.159034	1.48208863
16.166151	1.52002164
16.174590	1.55802638
16.192588	1.59634135
16.199732	1.63557236
16.215612	1.67459478
16.234935	1.71289631
16.250882	1.75086516
16.259513	1.78642761
16.267642	1.81870009
16.292439	1.84932429
16.310723	1.87917865
16.326984	1.90779171
16.359020	1.93522999
16.366664	1.96155297
16.376224	1.98727801
16.391268	2.01380954
16.407370	2.03960303
16.416221	2.06392373
16.441364	2.08696431
16.458117	2.10899035
16.475076	2.12994857
16.506970	2.15037394
16.515162	2.17003269
16.540199	2.18869350
16.558477	2.20655412
16.593215	2.22306162
16.606301	2.23781159
16.622916	2.25087605
16.630787	2.26184059
16.640682	2.27036775
16.651875	2.27665715
16.659858	2.28056979
16.690503	2.28268563
16.699515	2.28315732
16.709908	2.28179224
16.718880	2.27865211
16.741115	2.27403984
16.756967	2.26802504
16.769326	2.26065269
16.807021	2.25170729
16.814866	2.24142053
16.831594	2.22980243
16.843072	2.21695247
16.869696	2.20287019
16.889366	2.18768797
16.906100	2.17154549
16.922891	2.15435994
16.941460	2.13637717
16.949022	2.11800603
16.959197	2.09951791
16.976515	2.08070301
16.989852	2.06087771
17.023253	2.04013866
17.030672	2.02001832
17.039947	2.00063859
17.054028	1.98093690
17.070273	1.95976099
17.140910	1.93714878
17.159071	1.91522635
17.174020	1.89257880
17.182614	1.86826145
17.191715	1.84349873
17.206728	1.81947934
17.215104	1.79633270
17.249580	1.77381763
17.271877	1.75163904
17.280376	1.73051760
17.292294	1.70410750
17.300656	1.67738529
17.323638	1.65100841
17.332407	1.62450252
